<svg xmlns="http://www.w3.org/2000/svg" xmlns:xlink="http://www.w3.org/1999/xlink" width="500" zoomAndPan="magnify" viewBox="0 0 375 374.999991" height="500" preserveAspectRatio="xMidYMid meet" version="1.0"><defs><g/><clipPath id="870118a4af"><path d="M 18.851562 111.976562 L 153.101562 111.976562 L 153.101562 246.226562 L 18.851562 246.226562 Z M 18.851562 111.976562 " clip-rule="nonzero"/></clipPath></defs><rect x="-37.5" width="450" fill="#ffffff" y="-37.499999" height="449.999989" fill-opacity="1"/><rect x="-37.5" width="450" fill="#ffffff" y="-37.499999" height="449.999989" fill-opacity="1"/><path fill="#faab4e" d="M 106.121094 186.820312 C 104.597656 186.820312 103.152344 187.277344 101.921875 188.117188 C 100.648438 187.175781 99.125 186.644531 97.511719 186.644531 C 95.515625 186.644531 93.640625 187.421875 92.230469 188.835938 C 91.574219 189.492188 91.574219 190.554688 92.230469 191.207031 C 92.886719 191.863281 93.949219 191.863281 94.605469 191.207031 C 96.15625 189.65625 98.867188 189.652344 100.421875 191.207031 C 101.199219 191.984375 101.625 193.019531 101.625 194.117188 C 101.625 195.214844 101.199219 196.25 100.421875 197.027344 C 99.765625 197.683594 99.765625 198.742188 100.421875 199.398438 C 100.75 199.726562 101.179688 199.890625 101.609375 199.890625 C 102.039062 199.890625 102.46875 199.726562 102.792969 199.398438 C 104.207031 197.988281 104.984375 196.113281 104.984375 194.117188 C 104.984375 192.914062 104.667969 191.765625 104.132812 190.722656 C 105.691406 189.894531 107.75 190.101562 109.027344 191.382812 C 109.355469 191.710938 109.785156 191.875 110.214844 191.875 C 110.644531 191.875 111.074219 191.710938 111.402344 191.382812 C 112.058594 190.726562 112.058594 189.664062 111.402344 189.007812 C 109.992188 187.597656 108.117188 186.820312 106.121094 186.820312 Z M 106.121094 186.820312 " fill-opacity="1" fill-rule="nonzero"/><path fill="#faab4e" d="M 119.53125 181.984375 C 119.117188 181.554688 118.671875 181.152344 118.203125 180.789062 C 120.285156 179.296875 121.632812 176.859375 121.632812 174.179688 C 121.632812 170.511719 119.183594 167.394531 115.832031 166.378906 C 116.605469 163.738281 116.472656 160.894531 115.417969 158.179688 C 114.1875 155.011719 111.542969 152.449219 108.347656 151.328125 C 105.730469 150.410156 103.054688 150.324219 100.585938 151.027344 C 100.699219 149.71875 100.492188 148.359375 99.949219 147.046875 C 99.117188 145.019531 97.453125 143.4375 95.390625 142.703125 C 92.753906 141.769531 89.980469 142.125 87.777344 143.679688 C 87.085938 144.164062 86.5 144.757812 86 145.414062 C 85.503906 144.757812 84.914062 144.164062 84.226562 143.679688 C 82.023438 142.125 79.25 141.769531 76.613281 142.703125 C 74.546875 143.4375 72.886719 145.019531 72.050781 147.046875 C 71.511719 148.359375 71.304688 149.71875 71.414062 151.027344 C 68.949219 150.324219 66.273438 150.410156 63.652344 151.328125 C 60.460938 152.449219 57.816406 155.011719 56.585938 158.179688 C 55.53125 160.894531 55.394531 163.738281 56.167969 166.378906 C 52.820312 167.394531 50.371094 170.511719 50.371094 174.179688 C 50.371094 176.859375 51.714844 179.296875 53.800781 180.789062 C 53.328125 181.152344 52.882812 181.554688 52.472656 181.984375 C 50.261719 184.292969 49.042969 187.324219 49.042969 190.519531 C 49.042969 195.878906 52.460938 200.527344 57.398438 202.207031 C 56.933594 204.261719 57.160156 206.394531 58.074219 208.46875 C 59.027344 210.632812 60.847656 212.402344 63.0625 213.3125 C 65.675781 214.394531 68.394531 214.378906 70.847656 213.292969 C 72.722656 215.09375 75.148438 216.050781 77.695312 216.046875 C 78.980469 216.046875 80.296875 215.804688 81.585938 215.300781 C 83.410156 214.59375 84.933594 213.308594 86 211.6875 C 87.070312 213.308594 88.59375 214.59375 90.417969 215.300781 C 91.707031 215.804688 93.023438 216.046875 94.308594 216.046875 C 96.851562 216.046875 99.28125 215.09375 101.15625 213.292969 C 103.609375 214.378906 106.328125 214.394531 108.941406 213.3125 C 111.15625 212.402344 112.976562 210.632812 113.929688 208.46875 C 114.84375 206.394531 115.066406 204.261719 114.601562 202.207031 C 119.542969 200.527344 122.960938 195.878906 122.960938 190.519531 C 122.960938 187.324219 121.742188 184.292969 119.53125 181.984375 Z M 80.367188 212.175781 C 76.851562 213.542969 74.011719 212.035156 72.527344 210.164062 C 72.199219 209.75 71.710938 209.527344 71.214844 209.527344 C 70.910156 209.527344 70.605469 209.609375 70.332031 209.777344 C 69.046875 210.570312 66.964844 211.292969 64.339844 210.207031 C 62.917969 209.625 61.753906 208.496094 61.144531 207.113281 C 60.132812 204.820312 60.554688 202.910156 61.085938 201.710938 C 61.296875 201.238281 61.277344 200.695312 61.035156 200.238281 C 60.789062 199.785156 60.351562 199.464844 59.84375 199.375 C 55.53125 198.621094 52.402344 194.894531 52.402344 190.519531 C 52.402344 188.191406 53.285156 185.988281 54.894531 184.308594 C 55.8125 183.351562 56.949219 182.59375 58.175781 182.121094 C 58.886719 181.847656 59.328125 181.128906 59.242188 180.371094 C 59.160156 179.613281 58.574219 179.007812 57.820312 178.894531 C 55.449219 178.542969 53.726562 176.5625 53.726562 174.179688 C 53.726562 171.550781 55.867188 169.402344 58.5 169.390625 C 59.082031 169.386719 59.617188 169.085938 59.921875 168.589844 C 60.226562 168.09375 60.253906 167.476562 59.992188 166.957031 C 59.164062 165.3125 58.445312 162.664062 59.714844 159.398438 C 60.59375 157.128906 62.484375 155.296875 64.765625 154.496094 C 67.898438 153.398438 71.125 153.898438 73.613281 155.871094 C 74.292969 156.410156 75.269531 156.34375 75.867188 155.714844 C 76.464844 155.089844 76.492188 154.113281 75.925781 153.457031 C 74.683594 152.023438 74.40625 150.152344 75.15625 148.324219 C 75.621094 147.195312 76.585938 146.277344 77.738281 145.867188 C 79.332031 145.300781 80.988281 145.503906 82.289062 146.421875 C 83.5625 147.320312 84.324219 148.785156 84.324219 150.339844 L 84.324219 195.648438 C 82.84375 194.484375 81.003906 193.761719 78.976562 193.761719 C 74.179688 193.761719 70.277344 197.667969 70.277344 202.464844 C 70.277344 203.390625 71.027344 204.140625 71.957031 204.140625 C 72.882812 204.140625 73.632812 203.390625 73.632812 202.464844 C 73.632812 199.515625 76.03125 197.121094 78.976562 197.121094 C 81.925781 197.121094 84.324219 199.515625 84.324219 202.464844 L 84.324219 206.0625 C 84.324219 208.796875 82.730469 211.253906 80.367188 212.175781 Z M 112.160156 199.375 C 111.652344 199.464844 111.210938 199.785156 110.96875 200.238281 C 110.726562 200.695312 110.707031 201.238281 110.914062 201.710938 C 111.445312 202.910156 111.867188 204.820312 110.855469 207.113281 C 110.25 208.496094 109.085938 209.625 107.660156 210.210938 C 105.039062 211.292969 102.957031 210.570312 101.667969 209.777344 C 100.945312 209.332031 100.003906 209.496094 99.472656 210.164062 C 97.988281 212.03125 95.15625 213.542969 91.636719 212.175781 C 89.269531 211.253906 87.679688 208.796875 87.679688 206.0625 L 87.679688 172.511719 C 89.160156 173.675781 91 174.398438 93.023438 174.398438 C 97.824219 174.398438 101.726562 170.496094 101.726562 165.695312 C 101.726562 164.769531 100.972656 164.019531 100.046875 164.019531 C 99.121094 164.019531 98.367188 164.769531 98.367188 165.695312 C 98.367188 168.644531 95.972656 171.042969 93.023438 171.042969 C 90.078125 171.042969 87.679688 168.644531 87.679688 165.695312 L 87.679688 150.339844 C 87.679688 148.785156 88.441406 147.320312 89.710938 146.421875 C 90.527344 145.847656 91.484375 145.554688 92.476562 145.554688 C 93.066406 145.554688 93.671875 145.65625 94.265625 145.867188 C 95.417969 146.277344 96.378906 147.195312 96.84375 148.324219 C 97.597656 150.152344 97.316406 152.023438 96.078125 153.457031 C 95.511719 154.113281 95.535156 155.089844 96.136719 155.714844 C 96.734375 156.34375 97.710938 156.410156 98.390625 155.871094 C 100.878906 153.898438 104.101562 153.398438 107.238281 154.496094 C 109.519531 155.296875 111.40625 157.128906 112.289062 159.398438 C 113.558594 162.664062 112.835938 165.3125 112.011719 166.957031 C 111.75 167.476562 111.777344 168.09375 112.078125 168.589844 C 112.382812 169.085938 112.921875 169.386719 113.503906 169.390625 C 116.132812 169.402344 118.273438 171.550781 118.273438 174.179688 C 118.273438 176.5625 116.554688 178.542969 114.183594 178.894531 C 113.429688 179.007812 112.84375 179.613281 112.757812 180.371094 C 112.675781 181.128906 113.113281 181.847656 113.824219 182.121094 C 115.054688 182.59375 116.1875 183.351562 117.105469 184.308594 C 118.714844 185.988281 119.601562 188.191406 119.601562 190.519531 C 119.601562 194.894531 116.472656 198.621094 112.160156 199.375 Z M 112.160156 199.375 " fill-opacity="1" fill-rule="nonzero"/><path fill="#faab4e" d="M 73.503906 179.207031 C 73.503906 180.132812 74.257812 180.882812 75.183594 180.882812 C 76.109375 180.882812 76.863281 180.132812 76.863281 179.207031 C 76.863281 176.574219 75.488281 174.269531 73.429688 172.9375 C 73.4375 172.929688 73.449219 172.925781 73.457031 172.917969 C 76.371094 170.003906 76.371094 165.265625 73.457031 162.351562 C 72.800781 161.695312 71.738281 161.695312 71.082031 162.351562 C 70.429688 163.007812 70.429688 164.070312 71.082031 164.726562 C 72.6875 166.328125 72.6875 168.9375 71.082031 170.542969 C 69.480469 172.144531 66.867188 172.144531 65.265625 170.542969 C 64.609375 169.886719 63.546875 169.886719 62.890625 170.542969 C 62.234375 171.199219 62.234375 172.261719 62.890625 172.917969 C 64.347656 174.375 66.261719 175.101562 68.175781 175.101562 C 68.460938 175.101562 68.746094 175.050781 69.035156 175.019531 C 69.152344 175.046875 69.265625 175.089844 69.390625 175.089844 C 71.660156 175.089844 73.503906 176.9375 73.503906 179.207031 Z M 73.503906 179.207031 " fill-opacity="1" fill-rule="nonzero"/><g clip-path="url(#870118a4af)"><path fill="#faab4e" d="M 151.472656 180.800781 C 152.398438 180.800781 153.148438 180.050781 153.148438 179.125 C 153.148438 178.195312 152.398438 177.445312 151.472656 177.445312 L 136.363281 177.445312 L 136.363281 153.941406 L 145.109375 153.941406 C 145.757812 155.421875 147.234375 156.460938 148.953125 156.460938 C 151.269531 156.460938 153.148438 154.582031 153.148438 152.265625 C 153.148438 149.945312 151.269531 148.066406 148.953125 148.066406 C 147.234375 148.066406 145.757812 149.105469 145.109375 150.585938 L 136.363281 150.585938 L 136.363281 137.15625 C 136.363281 132.527344 132.597656 128.761719 127.96875 128.761719 L 114.546875 128.761719 L 114.546875 113.652344 C 114.546875 112.726562 113.796875 111.976562 112.867188 111.976562 C 111.941406 111.976562 111.1875 112.726562 111.1875 113.652344 L 111.1875 128.761719 L 87.6875 128.761719 L 87.6875 113.652344 C 87.6875 112.726562 86.9375 111.976562 86.007812 111.976562 C 85.082031 111.976562 84.328125 112.726562 84.328125 113.652344 L 84.328125 128.761719 L 60.828125 128.761719 L 60.828125 120.015625 C 62.308594 119.367188 63.347656 117.890625 63.347656 116.171875 C 63.347656 113.855469 61.46875 111.976562 59.148438 111.976562 C 56.832031 111.976562 54.953125 113.855469 54.953125 116.171875 C 54.953125 117.890625 55.988281 119.367188 57.46875 120.015625 L 57.46875 128.761719 L 44.035156 128.761719 C 39.40625 128.761719 35.640625 132.527344 35.640625 137.15625 L 35.640625 150.585938 L 20.53125 150.585938 C 19.605469 150.585938 18.851562 151.335938 18.851562 152.265625 C 18.851562 153.191406 19.605469 153.941406 20.53125 153.941406 L 35.640625 153.941406 L 35.640625 177.445312 L 20.53125 177.445312 C 19.605469 177.445312 18.851562 178.195312 18.851562 179.125 C 18.851562 180.050781 19.605469 180.800781 20.53125 180.800781 L 35.640625 180.800781 L 35.640625 204.304688 L 26.890625 204.304688 C 26.242188 202.824219 24.769531 201.785156 23.050781 201.785156 C 20.730469 201.785156 18.851562 203.664062 18.851562 205.984375 C 18.851562 208.300781 20.730469 210.179688 23.050781 210.179688 C 24.769531 210.179688 26.242188 209.140625 26.890625 207.660156 L 35.640625 207.660156 L 35.640625 221.089844 C 35.640625 225.71875 39.40625 229.484375 44.035156 229.484375 L 57.464844 229.484375 L 57.464844 238.25 C 55.988281 238.902344 54.953125 240.371094 54.953125 242.089844 C 54.953125 244.40625 56.832031 246.285156 59.148438 246.285156 C 61.46875 246.285156 63.347656 244.40625 63.347656 242.089844 C 63.347656 240.367188 62.304688 238.890625 60.820312 238.242188 L 60.820312 229.484375 L 84.324219 229.484375 L 84.324219 244.59375 C 84.324219 245.519531 85.074219 246.273438 86 246.273438 C 86.929688 246.273438 87.679688 245.519531 87.679688 244.59375 L 87.679688 229.484375 L 111.183594 229.484375 L 111.183594 244.59375 C 111.183594 245.519531 111.933594 246.273438 112.859375 246.273438 C 113.789062 246.273438 114.539062 245.519531 114.539062 244.59375 L 114.539062 229.484375 L 127.96875 229.484375 C 132.597656 229.484375 136.363281 225.71875 136.363281 221.089844 L 136.363281 207.660156 L 151.472656 207.660156 C 152.398438 207.660156 153.148438 206.910156 153.148438 205.984375 C 153.148438 205.054688 152.398438 204.304688 151.472656 204.304688 L 136.363281 204.304688 L 136.363281 180.800781 Z M 133.003906 221.089844 C 133.003906 223.867188 130.746094 226.128906 127.96875 226.128906 L 44.035156 226.128906 C 41.257812 226.128906 38.996094 223.867188 38.996094 221.089844 L 38.996094 137.15625 C 38.996094 134.378906 41.257812 132.121094 44.035156 132.121094 L 127.96875 132.121094 C 130.746094 132.121094 133.003906 134.378906 133.003906 137.15625 Z M 133.003906 221.089844 " fill-opacity="1" fill-rule="nonzero"/></g><g fill="#545454" fill-opacity="1"><g transform="translate(176.957044, 163.57899)"><g><path d="M 12.96875 0.5 C 10.675781 0.5 8.457031 0.1875 6.3125 -0.4375 C 4.175781 -1.0625 2.457031 -1.867188 1.15625 -2.859375 L 3.4375 -7.921875 C 4.6875 -7.003906 6.164062 -6.269531 7.875 -5.71875 C 9.59375 -5.164062 11.304688 -4.890625 13.015625 -4.890625 C 14.921875 -4.890625 16.328125 -5.171875 17.234375 -5.734375 C 18.148438 -6.304688 18.609375 -7.0625 18.609375 -8 C 18.609375 -8.6875 18.335938 -9.257812 17.796875 -9.71875 C 17.265625 -10.175781 16.578125 -10.539062 15.734375 -10.8125 C 14.890625 -11.09375 13.75 -11.398438 12.3125 -11.734375 C 10.101562 -12.253906 8.289062 -12.773438 6.875 -13.296875 C 5.46875 -13.828125 4.257812 -14.671875 3.25 -15.828125 C 2.238281 -16.992188 1.734375 -18.546875 1.734375 -20.484375 C 1.734375 -22.160156 2.191406 -23.679688 3.109375 -25.046875 C 4.023438 -26.421875 5.398438 -27.507812 7.234375 -28.3125 C 9.066406 -29.113281 11.3125 -29.515625 13.96875 -29.515625 C 15.820312 -29.515625 17.628906 -29.289062 19.390625 -28.84375 C 21.160156 -28.40625 22.710938 -27.769531 24.046875 -26.9375 L 21.96875 -21.84375 C 19.289062 -23.363281 16.609375 -24.125 13.921875 -24.125 C 12.046875 -24.125 10.660156 -23.816406 9.765625 -23.203125 C 8.867188 -22.597656 8.421875 -21.800781 8.421875 -20.8125 C 8.421875 -19.8125 8.9375 -19.066406 9.96875 -18.578125 C 11.007812 -18.097656 12.59375 -17.625 14.71875 -17.15625 C 16.925781 -16.632812 18.734375 -16.109375 20.140625 -15.578125 C 21.554688 -15.054688 22.765625 -14.226562 23.765625 -13.09375 C 24.773438 -11.96875 25.28125 -10.4375 25.28125 -8.5 C 25.28125 -6.84375 24.816406 -5.328125 23.890625 -3.953125 C 22.972656 -2.585938 21.585938 -1.503906 19.734375 -0.703125 C 17.878906 0.0976562 15.625 0.5 12.96875 0.5 Z M 12.96875 0.5 "/></g></g></g><g fill="#545454" fill-opacity="1"><g transform="translate(203.400924, 163.57899)"><g><path d="M 24.828125 -11.0625 C 24.828125 -10.976562 24.785156 -10.398438 24.703125 -9.328125 L 7.828125 -9.328125 C 8.140625 -7.941406 8.859375 -6.847656 9.984375 -6.046875 C 11.117188 -5.242188 12.53125 -4.84375 14.21875 -4.84375 C 15.375 -4.84375 16.398438 -5.015625 17.296875 -5.359375 C 18.203125 -5.710938 19.039062 -6.257812 19.8125 -7 L 23.25 -3.28125 C 21.15625 -0.875 18.085938 0.328125 14.046875 0.328125 C 11.535156 0.328125 9.3125 -0.160156 7.375 -1.140625 C 5.445312 -2.117188 3.957031 -3.476562 2.90625 -5.21875 C 1.851562 -6.957031 1.328125 -8.9375 1.328125 -11.15625 C 1.328125 -13.332031 1.84375 -15.296875 2.875 -17.046875 C 3.914062 -18.804688 5.335938 -20.175781 7.140625 -21.15625 C 8.953125 -22.144531 10.976562 -22.640625 13.21875 -22.640625 C 15.40625 -22.640625 17.378906 -22.164062 19.140625 -21.21875 C 20.910156 -20.28125 22.300781 -18.929688 23.3125 -17.171875 C 24.320312 -15.421875 24.828125 -13.382812 24.828125 -11.0625 Z M 13.265625 -17.734375 C 11.796875 -17.734375 10.5625 -17.316406 9.5625 -16.484375 C 8.570312 -15.660156 7.96875 -14.53125 7.75 -13.09375 L 18.734375 -13.09375 C 18.515625 -14.507812 17.90625 -15.632812 16.90625 -16.46875 C 15.914062 -17.3125 14.703125 -17.734375 13.265625 -17.734375 Z M 13.265625 -17.734375 "/></g></g></g><g fill="#545454" fill-opacity="1"><g transform="translate(229.554677, 163.57899)"><g><path d="M 13.765625 0.328125 C 11.390625 0.328125 9.253906 -0.160156 7.359375 -1.140625 C 5.460938 -2.117188 3.984375 -3.476562 2.921875 -5.21875 C 1.859375 -6.957031 1.328125 -8.9375 1.328125 -11.15625 C 1.328125 -13.363281 1.859375 -15.335938 2.921875 -17.078125 C 3.984375 -18.816406 5.460938 -20.175781 7.359375 -21.15625 C 9.253906 -22.144531 11.390625 -22.640625 13.765625 -22.640625 C 16.109375 -22.640625 18.15625 -22.144531 19.90625 -21.15625 C 21.664062 -20.175781 22.945312 -18.773438 23.75 -16.953125 L 18.734375 -14.265625 C 17.578125 -16.304688 15.90625 -17.328125 13.71875 -17.328125 C 12.03125 -17.328125 10.632812 -16.773438 9.53125 -15.671875 C 8.425781 -14.566406 7.875 -13.0625 7.875 -11.15625 C 7.875 -9.25 8.425781 -7.738281 9.53125 -6.625 C 10.632812 -5.519531 12.03125 -4.96875 13.71875 -4.96875 C 15.925781 -4.96875 17.597656 -5.992188 18.734375 -8.046875 L 23.75 -5.3125 C 22.945312 -3.539062 21.664062 -2.15625 19.90625 -1.15625 C 18.15625 -0.164062 16.109375 0.328125 13.765625 0.328125 Z M 13.765625 0.328125 "/></g></g></g><g fill="#545454" fill-opacity="1"><g transform="translate(254.050495, 163.57899)"><g><path d="M 13.59375 0.328125 C 11.25 0.328125 9.144531 -0.160156 7.28125 -1.140625 C 5.414062 -2.117188 3.957031 -3.476562 2.90625 -5.21875 C 1.851562 -6.957031 1.328125 -8.9375 1.328125 -11.15625 C 1.328125 -13.363281 1.851562 -15.335938 2.90625 -17.078125 C 3.957031 -18.816406 5.414062 -20.175781 7.28125 -21.15625 C 9.144531 -22.144531 11.25 -22.640625 13.59375 -22.640625 C 15.945312 -22.640625 18.046875 -22.144531 19.890625 -21.15625 C 21.742188 -20.175781 23.195312 -18.816406 24.25 -17.078125 C 25.300781 -15.335938 25.828125 -13.363281 25.828125 -11.15625 C 25.828125 -8.9375 25.300781 -6.957031 24.25 -5.21875 C 23.195312 -3.476562 21.742188 -2.117188 19.890625 -1.140625 C 18.046875 -0.160156 15.945312 0.328125 13.59375 0.328125 Z M 13.59375 -4.96875 C 15.25 -4.96875 16.609375 -5.523438 17.671875 -6.640625 C 18.742188 -7.765625 19.28125 -9.269531 19.28125 -11.15625 C 19.28125 -13.03125 18.742188 -14.523438 17.671875 -15.640625 C 16.609375 -16.765625 15.25 -17.328125 13.59375 -17.328125 C 11.9375 -17.328125 10.566406 -16.765625 9.484375 -15.640625 C 8.410156 -14.523438 7.875 -13.03125 7.875 -11.15625 C 7.875 -9.269531 8.410156 -7.765625 9.484375 -6.640625 C 10.566406 -5.523438 11.9375 -4.96875 13.59375 -4.96875 Z M 13.59375 -4.96875 "/></g></g></g><g fill="#545454" fill-opacity="1"><g transform="translate(281.198992, 163.57899)"><g><path d="M 16.546875 -22.640625 C 19.304688 -22.640625 21.535156 -21.804688 23.234375 -20.140625 C 24.929688 -18.484375 25.78125 -16.023438 25.78125 -12.765625 L 25.78125 0 L 19.3125 0 L 19.3125 -11.765625 C 19.3125 -13.535156 18.925781 -14.851562 18.15625 -15.71875 C 17.382812 -16.59375 16.265625 -17.03125 14.796875 -17.03125 C 13.171875 -17.03125 11.875 -16.523438 10.90625 -15.515625 C 9.9375 -14.515625 9.453125 -13.019531 9.453125 -11.03125 L 9.453125 0 L 2.984375 0 L 2.984375 -22.296875 L 9.15625 -22.296875 L 9.15625 -19.6875 C 10.019531 -20.625 11.085938 -21.347656 12.359375 -21.859375 C 13.628906 -22.378906 15.023438 -22.640625 16.546875 -22.640625 Z M 16.546875 -22.640625 "/></g></g></g><g fill="#545454" fill-opacity="1"><g transform="translate(309.839634, 163.57899)"><g><path d="M 25.703125 -30.765625 L 25.703125 0 L 19.53125 0 L 19.53125 -2.5625 C 17.925781 -0.632812 15.601562 0.328125 12.5625 0.328125 C 10.457031 0.328125 8.554688 -0.140625 6.859375 -1.078125 C 5.160156 -2.015625 3.828125 -3.351562 2.859375 -5.09375 C 1.890625 -6.832031 1.40625 -8.851562 1.40625 -11.15625 C 1.40625 -13.445312 1.890625 -15.460938 2.859375 -17.203125 C 3.828125 -18.941406 5.160156 -20.28125 6.859375 -21.21875 C 8.554688 -22.164062 10.457031 -22.640625 12.5625 -22.640625 C 15.40625 -22.640625 17.628906 -21.738281 19.234375 -19.9375 L 19.234375 -30.765625 Z M 13.671875 -4.96875 C 15.304688 -4.96875 16.660156 -5.523438 17.734375 -6.640625 C 18.816406 -7.765625 19.359375 -9.269531 19.359375 -11.15625 C 19.359375 -13.03125 18.816406 -14.523438 17.734375 -15.640625 C 16.660156 -16.765625 15.304688 -17.328125 13.671875 -17.328125 C 12.015625 -17.328125 10.644531 -16.765625 9.5625 -15.640625 C 8.488281 -14.523438 7.953125 -13.03125 7.953125 -11.15625 C 7.953125 -9.269531 8.488281 -7.765625 9.5625 -6.640625 C 10.644531 -5.523438 12.015625 -4.96875 13.671875 -4.96875 Z M 13.671875 -4.96875 "/></g></g></g><g fill="#545454" fill-opacity="1"><g transform="translate(199.60918, 219.936046)"><g><path d="M 24.75 -15.09375 C 26.40625 -14.5625 27.703125 -13.679688 28.640625 -12.453125 C 29.578125 -11.222656 30.046875 -9.710938 30.046875 -7.921875 C 30.046875 -5.378906 29.054688 -3.421875 27.078125 -2.046875 C 25.109375 -0.679688 22.234375 0 18.453125 0 L 3.4375 0 L 3.4375 -29.015625 L 17.625 -29.015625 C 21.15625 -29.015625 23.867188 -28.335938 25.765625 -26.984375 C 27.660156 -25.628906 28.609375 -23.789062 28.609375 -21.46875 C 28.609375 -20.0625 28.269531 -18.804688 27.59375 -17.703125 C 26.914062 -16.597656 25.96875 -15.726562 24.75 -15.09375 Z M 10.109375 -23.953125 L 10.109375 -17.125 L 16.78125 -17.125 C 18.445312 -17.125 19.707031 -17.410156 20.5625 -17.984375 C 21.414062 -18.566406 21.84375 -19.425781 21.84375 -20.5625 C 21.84375 -21.695312 21.414062 -22.546875 20.5625 -23.109375 C 19.707031 -23.671875 18.445312 -23.953125 16.78125 -23.953125 Z M 17.953125 -5.0625 C 19.722656 -5.0625 21.054688 -5.347656 21.953125 -5.921875 C 22.847656 -6.503906 23.296875 -7.40625 23.296875 -8.625 C 23.296875 -11.03125 21.515625 -12.234375 17.953125 -12.234375 L 10.109375 -12.234375 L 10.109375 -5.0625 Z M 17.953125 -5.0625 "/></g></g></g><g fill="#545454" fill-opacity="1"><g transform="translate(231.316992, 219.936046)"><g><path d="M 9.15625 -19.359375 C 9.9375 -20.429688 10.984375 -21.242188 12.296875 -21.796875 C 13.609375 -22.359375 15.117188 -22.640625 16.828125 -22.640625 L 16.828125 -16.671875 C 16.109375 -16.722656 15.625 -16.75 15.375 -16.75 C 13.53125 -16.75 12.082031 -16.226562 11.03125 -15.1875 C 9.976562 -14.15625 9.453125 -12.601562 9.453125 -10.53125 L 9.453125 0 L 2.984375 0 L 2.984375 -22.296875 L 9.15625 -22.296875 Z M 9.15625 -19.359375 "/></g></g></g><g fill="#545454" fill-opacity="1"><g transform="translate(249.181127, 219.936046)"><g><path d="M 11.984375 -22.640625 C 15.429688 -22.640625 18.082031 -21.816406 19.9375 -20.171875 C 21.789062 -18.523438 22.71875 -16.039062 22.71875 -12.71875 L 22.71875 0 L 16.671875 0 L 16.671875 -2.78125 C 15.453125 -0.707031 13.179688 0.328125 9.859375 0.328125 C 8.148438 0.328125 6.664062 0.0390625 5.40625 -0.53125 C 4.15625 -1.113281 3.195312 -1.914062 2.53125 -2.9375 C 1.863281 -3.96875 1.53125 -5.128906 1.53125 -6.421875 C 1.53125 -8.492188 2.3125 -10.125 3.875 -11.3125 C 5.4375 -12.5 7.847656 -13.09375 11.109375 -13.09375 L 16.25 -13.09375 C 16.25 -14.507812 15.816406 -15.597656 14.953125 -16.359375 C 14.097656 -17.117188 12.816406 -17.5 11.109375 -17.5 C 9.921875 -17.5 8.753906 -17.3125 7.609375 -16.9375 C 6.460938 -16.5625 5.488281 -16.054688 4.6875 -15.421875 L 2.359375 -19.9375 C 3.578125 -20.789062 5.035156 -21.453125 6.734375 -21.921875 C 8.429688 -22.398438 10.179688 -22.640625 11.984375 -22.640625 Z M 11.484375 -4.015625 C 12.585938 -4.015625 13.566406 -4.269531 14.421875 -4.78125 C 15.273438 -5.300781 15.882812 -6.054688 16.25 -7.046875 L 16.25 -9.328125 L 11.8125 -9.328125 C 9.15625 -9.328125 7.828125 -8.457031 7.828125 -6.71875 C 7.828125 -5.882812 8.148438 -5.222656 8.796875 -4.734375 C 9.453125 -4.253906 10.347656 -4.015625 11.484375 -4.015625 Z M 11.484375 -4.015625 "/></g></g></g><g fill="#545454" fill-opacity="1"><g transform="translate(274.754599, 219.936046)"><g><path d="M 2.984375 -22.296875 L 9.453125 -22.296875 L 9.453125 0 L 2.984375 0 Z M 6.21875 -25.40625 C 5.03125 -25.40625 4.0625 -25.75 3.3125 -26.4375 C 2.570312 -27.132812 2.203125 -27.992188 2.203125 -29.015625 C 2.203125 -30.035156 2.570312 -30.890625 3.3125 -31.578125 C 4.0625 -32.273438 5.03125 -32.625 6.21875 -32.625 C 7.40625 -32.625 8.367188 -32.289062 9.109375 -31.625 C 9.859375 -30.96875 10.234375 -30.140625 10.234375 -29.140625 C 10.234375 -28.066406 9.859375 -27.175781 9.109375 -26.46875 C 8.367188 -25.757812 7.40625 -25.40625 6.21875 -25.40625 Z M 6.21875 -25.40625 "/></g></g></g><g fill="#545454" fill-opacity="1"><g transform="translate(287.230466, 219.936046)"><g><path d="M 16.546875 -22.640625 C 19.304688 -22.640625 21.535156 -21.804688 23.234375 -20.140625 C 24.929688 -18.484375 25.78125 -16.023438 25.78125 -12.765625 L 25.78125 0 L 19.3125 0 L 19.3125 -11.765625 C 19.3125 -13.535156 18.925781 -14.851562 18.15625 -15.71875 C 17.382812 -16.59375 16.265625 -17.03125 14.796875 -17.03125 C 13.171875 -17.03125 11.875 -16.523438 10.90625 -15.515625 C 9.9375 -14.515625 9.453125 -13.019531 9.453125 -11.03125 L 9.453125 0 L 2.984375 0 L 2.984375 -22.296875 L 9.15625 -22.296875 L 9.15625 -19.6875 C 10.019531 -20.625 11.085938 -21.347656 12.359375 -21.859375 C 13.628906 -22.378906 15.023438 -22.640625 16.546875 -22.640625 Z M 16.546875 -22.640625 "/></g></g></g></svg>